# xmcd
#
# Track frame offsets:
#	150
#	17004
#	29516
#	45159
#	57635
#	71771
#	85011
#	95448
#	108687
#	120015
#	131737
#	143332
#	159641
#	173351
#	191704
#	204379
#	215239
#	227529
#	240870
#	259059
#	272933
#	287144
#
# Disc length: 3969 seconds
#
# Revision: 1
# Processed by: cddbd v1.5.2PL0 Copyright (c) Steve Scherf et al.
# Submitted via: audiograbber 1.83.01
#
DISCID=320f7f16
DTITLE=Ray Price - For The Good Times/I Won't Mention It Again
DYEAR=1990
DGENRE=Country
TTITLE0=For The Good Times
TTITLE1=Gonna Burn Some Bridges
TTITLE2=Crazy Arms
TTITLE3=I'll Go To A Stranger
TTITLE4=Black And White Lies
TTITLE5=Grazin' In Greener Pastures
TTITLE6=Help Me Make It Through The Night
TTITLE7=Lonely World
TTITLE8=You Can't Take It With You
TTITLE9=A Cold Day In July
TTITLE10=Heartaches By The Number
TTITLE11=I Won't Mention It Again
TTITLE12=Kiss The World Goodbye
TTITLE13=Sunday Morning Comin' Down
TTITLE14=The Burden Of Freedom
TTITLE15=Forgive My Heart
TTITLE16=I'd Rather Be Sorry
TTITLE17=Loving Her Was Easier
TTITLE18=Bridge Over Troubled Water
TTITLE19=When I Loved Her
TTITLE20=Sweet Memories
TTITLE21=Jesse Younger
EXTD=Originally released as two separate albums on vinyl released in 1970 and 1
EXTD=971. This compilation from the Columbia two album cassetteof the original 
EXTD=recordings, released in 1990.
EXTT0=
EXTT1=
EXTT2=
EXTT3=
EXTT4=
EXTT5=
EXTT6=
EXTT7=
EXTT8=
EXTT9=
EXTT10=
EXTT11=
EXTT12=
EXTT13=
EXTT14=
EXTT15=
EXTT16=
EXTT17=
EXTT18=
EXTT19=
EXTT20=
EXTT21=
PLAYORDER=
